<?xml version="1.0" encoding="UTF-8" standalone="no"?>
<!DOCTYPE svg PUBLIC "-//W3C//DTD SVG 1.1//EN"
 "http://www.w3.org/Graphics/SVG/1.1/DTD/svg11.dtd">
<!-- Generated by graphviz version 13.1.2 (20250808.2320)
 -->
<!-- Pages: 1 -->
<svg width="498pt" height="620pt"
 viewBox="0.00 0.00 498.00 620.00" xmlns="http://www.w3.org/2000/svg" xmlns:xlink="http://www.w3.org/1999/xlink">
<g id="graph0" class="graph" transform="scale(1 1) rotate(0) translate(4 616)">
<polygon fill="white" stroke="none" points="-4,4 -4,-616 493.56,-616 493.56,4 -4,4"/>
<g id="clust1" class="cluster">
<title>cluster_PLAQUES</title>
<polygon fill="orange" stroke="orange" points="129.56,-208 129.56,-404 481.56,-404 481.56,-208 129.56,-208"/>
</g>
<!-- ALIM_PHASE -->
<g id="node1" class="node">
<title>ALIM_PHASE</title>
<ellipse fill="none" stroke="black" cx="301.56" cy="-594" rx="68.75" ry="18"/>
<text xml:space="preserve" text-anchor="middle" x="301.56" y="-588.95" font-family="Times New Roman,serif" font-size="14.00">ALIM_PHASE</text>
</g>
<!-- BORNIER_3 -->
<g id="node2" class="node">
<title>BORNIER_3</title>
<ellipse fill="none" stroke="black" cx="301.56" cy="-522" rx="60.56" ry="18"/>
<text xml:space="preserve" text-anchor="middle" x="301.56" y="-516.95" font-family="Times New Roman,serif" font-size="14.00">BORNIER_3</text>
</g>
<!-- ALIM_PHASE&#45;&#45;BORNIER_3 -->
<g id="edge1" class="edge">
<title>ALIM_PHASE&#45;&#45;BORNIER_3</title>
<path fill="none" stroke="black" d="M301.56,-575.7C301.56,-564.85 301.56,-550.92 301.56,-540.1"/>
</g>
<!-- BORNIER_2 -->
<g id="node3" class="node">
<title>BORNIER_2</title>
<ellipse fill="none" stroke="black" cx="186.56" cy="-450" rx="60.56" ry="18"/>
<text xml:space="preserve" text-anchor="middle" x="186.56" y="-444.95" font-family="Times New Roman,serif" font-size="14.00">BORNIER_2</text>
</g>
<!-- BORNIER_3&#45;&#45;BORNIER_2 -->
<g id="edge2" class="edge">
<title>BORNIER_3&#45;&#45;BORNIER_2</title>
<path fill="none" stroke="black" d="M275.76,-505.29C256.82,-493.76 231.21,-478.17 212.29,-466.66"/>
</g>
<!-- ROUGE_T -->
<g id="node9" class="node">
<title>ROUGE_T</title>
<ellipse fill="none" stroke="black" cx="301.56" cy="-378" rx="52.89" ry="18"/>
<text xml:space="preserve" text-anchor="middle" x="301.56" y="-372.95" font-family="Times New Roman,serif" font-size="14.00">ROUGE_T</text>
</g>
<!-- BORNIER_3&#45;&#45;ROUGE_T -->
<g id="edge13" class="edge">
<title>BORNIER_3&#45;&#45;ROUGE_T</title>
<path fill="none" stroke="black" d="M301.56,-503.59C301.56,-476.19 301.56,-423.32 301.56,-396.11"/>
</g>
<!-- GRIS_T -->
<g id="node10" class="node">
<title>GRIS_T</title>
<ellipse fill="none" stroke="black" cx="414.56" cy="-378" rx="42.14" ry="18"/>
<text xml:space="preserve" text-anchor="middle" x="414.56" y="-372.95" font-family="Times New Roman,serif" font-size="14.00">GRIS_T</text>
</g>
<!-- BORNIER_3&#45;&#45;GRIS_T -->
<g id="edge14" class="edge">
<title>BORNIER_3&#45;&#45;GRIS_T</title>
<path fill="none" stroke="black" d="M314.97,-504.15C336.84,-476.68 379.9,-422.56 401.52,-395.39"/>
</g>
<!-- BORNIER_1 -->
<g id="node4" class="node">
<title>BORNIER_1</title>
<ellipse fill="none" stroke="black" cx="60.56" cy="-378" rx="60.56" ry="18"/>
<text xml:space="preserve" text-anchor="middle" x="60.56" y="-372.95" font-family="Times New Roman,serif" font-size="14.00">BORNIER_1</text>
</g>
<!-- BORNIER_2&#45;&#45;BORNIER_1 -->
<g id="edge3" class="edge">
<title>BORNIER_2&#45;&#45;BORNIER_1</title>
<path fill="none" stroke="black" d="M158.91,-433.64C137.9,-421.97 109.14,-405.99 88.15,-394.33"/>
</g>
<!-- NOIR_T -->
<g id="node8" class="node">
<title>NOIR_T</title>
<ellipse fill="none" stroke="black" cx="186.56" cy="-378" rx="43.67" ry="18"/>
<text xml:space="preserve" text-anchor="middle" x="186.56" y="-372.95" font-family="Times New Roman,serif" font-size="14.00">NOIR_T</text>
</g>
<!-- BORNIER_2&#45;&#45;NOIR_T -->
<g id="edge12" class="edge">
<title>BORNIER_2&#45;&#45;NOIR_T</title>
<path fill="none" stroke="black" d="M186.56,-431.7C186.56,-420.85 186.56,-406.92 186.56,-396.1"/>
</g>
<!-- BORNIER_4 -->
<g id="node5" class="node">
<title>BORNIER_4</title>
<ellipse fill="none" stroke="black" cx="202.56" cy="-162" rx="60.56" ry="18"/>
<text xml:space="preserve" text-anchor="middle" x="202.56" y="-156.95" font-family="Times New Roman,serif" font-size="14.00">BORNIER_4</text>
</g>
<!-- BORNIER_5 -->
<g id="node6" class="node">
<title>BORNIER_5</title>
<ellipse fill="none" stroke="black" cx="305.56" cy="-90" rx="60.56" ry="18"/>
<text xml:space="preserve" text-anchor="middle" x="305.56" y="-84.95" font-family="Times New Roman,serif" font-size="14.00">BORNIER_5</text>
</g>
<!-- BORNIER_4&#45;&#45;BORNIER_5 -->
<g id="edge4" class="edge">
<title>BORNIER_4&#45;&#45;BORNIER_5</title>
<path fill="none" stroke="black" d="M225.94,-145.12C242.79,-133.66 265.45,-118.26 282.28,-106.82"/>
</g>
<!-- ALIM_NEUTRE -->
<g id="node7" class="node">
<title>ALIM_NEUTRE</title>
<ellipse fill="none" stroke="black" cx="305.56" cy="-18" rx="75.92" ry="18"/>
<text xml:space="preserve" text-anchor="middle" x="305.56" y="-12.95" font-family="Times New Roman,serif" font-size="14.00">ALIM_NEUTRE</text>
</g>
<!-- BORNIER_5&#45;&#45;ALIM_NEUTRE -->
<g id="edge5" class="edge">
<title>BORNIER_5&#45;&#45;ALIM_NEUTRE</title>
<path fill="none" stroke="black" d="M305.56,-71.7C305.56,-60.85 305.56,-46.92 305.56,-36.1"/>
</g>
<!-- PLAQUES -->
<g id="node11" class="node">
<title>PLAQUES</title>
<ellipse fill="none" stroke="black" cx="303.56" cy="-306" rx="52.38" ry="18"/>
<text xml:space="preserve" text-anchor="middle" x="303.56" y="-300.95" font-family="Times New Roman,serif" font-size="14.00">PLAQUES</text>
</g>
<!-- NOIR_T&#45;&#45;PLAQUES -->
<g id="edge6" class="edge">
<title>NOIR_T&#45;&#45;PLAQUES</title>
<path fill="none" stroke="black" d="M210.52,-362.67C230.31,-350.83 258.32,-334.07 278.42,-322.04"/>
</g>
<!-- ROUGE_T&#45;&#45;PLAQUES -->
<g id="edge7" class="edge">
<title>ROUGE_T&#45;&#45;PLAQUES</title>
<path fill="none" stroke="black" d="M302.06,-359.7C302.37,-348.85 302.77,-334.92 303.08,-324.1"/>
</g>
<!-- GRIS_T&#45;&#45;PLAQUES -->
<g id="edge8" class="edge">
<title>GRIS_T&#45;&#45;PLAQUES</title>
<path fill="none" stroke="black" d="M391.56,-362.5C372.9,-350.72 346.65,-334.17 327.69,-322.21"/>
</g>
<!-- BLEU1_T -->
<g id="node12" class="node">
<title>BLEU1_T</title>
<ellipse fill="none" stroke="black" cx="187.56" cy="-234" rx="49.82" ry="18"/>
<text xml:space="preserve" text-anchor="middle" x="187.56" y="-228.95" font-family="Times New Roman,serif" font-size="14.00">BLEU1_T</text>
</g>
<!-- PLAQUES&#45;&#45;BLEU1_T -->
<g id="edge9" class="edge">
<title>PLAQUES&#45;&#45;BLEU1_T</title>
<path fill="none" stroke="black" d="M278.39,-289.81C258.8,-277.99 231.76,-261.67 212.29,-249.92"/>
</g>
<!-- BLEU2_T -->
<g id="node13" class="node">
<title>BLEU2_T</title>
<ellipse fill="none" stroke="black" cx="305.56" cy="-234" rx="49.82" ry="18"/>
<text xml:space="preserve" text-anchor="middle" x="305.56" y="-228.95" font-family="Times New Roman,serif" font-size="14.00">BLEU2_T</text>
</g>
<!-- PLAQUES&#45;&#45;BLEU2_T -->
<g id="edge10" class="edge">
<title>PLAQUES&#45;&#45;BLEU2_T</title>
<path fill="none" stroke="black" d="M304.06,-287.7C304.37,-276.85 304.77,-262.92 305.08,-252.1"/>
</g>
<!-- BLEU3_T -->
<g id="node14" class="node">
<title>BLEU3_T</title>
<ellipse fill="none" stroke="black" cx="423.56" cy="-234" rx="49.82" ry="18"/>
<text xml:space="preserve" text-anchor="middle" x="423.56" y="-228.95" font-family="Times New Roman,serif" font-size="14.00">BLEU3_T</text>
</g>
<!-- PLAQUES&#45;&#45;BLEU3_T -->
<g id="edge11" class="edge">
<title>PLAQUES&#45;&#45;BLEU3_T</title>
<path fill="none" stroke="black" d="M329.31,-289.98C349.69,-278.09 378.01,-261.57 398.28,-249.75"/>
</g>
<!-- BLEU1_T&#45;&#45;BORNIER_4 -->
<g id="edge15" class="edge">
<title>BLEU1_T&#45;&#45;BORNIER_4</title>
<path fill="none" stroke="black" d="M191.27,-215.7C193.6,-204.85 196.58,-190.92 198.9,-180.1"/>
</g>
<!-- BLEU2_T&#45;&#45;BORNIER_5 -->
<g id="edge16" class="edge">
<title>BLEU2_T&#45;&#45;BORNIER_5</title>
<path fill="none" stroke="black" d="M305.56,-215.59C305.56,-188.19 305.56,-135.32 305.56,-108.11"/>
</g>
<!-- BLEU3_T&#45;&#45;BORNIER_5 -->
<g id="edge17" class="edge">
<title>BLEU3_T&#45;&#45;BORNIER_5</title>
<path fill="none" stroke="black" d="M409.8,-216.43C387.18,-189.22 342.41,-135.33 319.61,-107.9"/>
</g>
</g>
</svg>
