<?xml version="1.0" encoding="UTF-8" standalone="no"?>
<!DOCTYPE svg PUBLIC "-//W3C//DTD SVG 1.1//EN"
 "http://www.w3.org/Graphics/SVG/1.1/DTD/svg11.dtd">
<!-- Generated by graphviz version 13.1.2 (20250808.2320)
 -->
<!-- Pages: 1 -->
<svg width="675pt" height="368pt"
 viewBox="0.00 0.00 675.00 368.00" xmlns="http://www.w3.org/2000/svg" xmlns:xlink="http://www.w3.org/1999/xlink">
<g id="graph0" class="graph" transform="scale(1 1) rotate(0) translate(4 364)">
<polygon fill="white" stroke="none" points="-4,4 -4,-364 671.24,-364 671.24,4 -4,4"/>
<!-- ALIM_TERRE -->
<g id="node1" class="node">
<title>ALIM_TERRE</title>
<ellipse fill="none" stroke="black" cx="68.75" cy="-207" rx="68.75" ry="18"/>
<text xml:space="preserve" text-anchor="middle" x="68.75" y="-201.95" font-family="Times New Roman,serif" font-size="14.00">ALIM_TERRE</text>
</g>
<!-- BORNIER_6 -->
<g id="node2" class="node">
<title>BORNIER_6</title>
<ellipse fill="none" stroke="black" cx="234.07" cy="-207" rx="60.56" ry="18"/>
<text xml:space="preserve" text-anchor="middle" x="234.07" y="-201.95" font-family="Times New Roman,serif" font-size="14.00">BORNIER_6</text>
</g>
<!-- ALIM_TERRE&#45;&#45;BORNIER_6 -->
<g id="edge1" class="edge">
<title>ALIM_TERRE&#45;&#45;BORNIER_6</title>
<path fill="none" stroke="black" d="M137.6,-207C149.43,-207 161.66,-207 173.25,-207"/>
</g>
<!-- VERT_T -->
<g id="node3" class="node">
<title>VERT_T</title>
<ellipse fill="none" stroke="black" cx="375.33" cy="-288" rx="44.7" ry="18"/>
<text xml:space="preserve" text-anchor="middle" x="375.33" y="-282.95" font-family="Times New Roman,serif" font-size="14.00">VERT_T</text>
</g>
<!-- BORNIER_6&#45;&#45;VERT_T -->
<g id="edge2" class="edge">
<title>BORNIER_6&#45;&#45;VERT_T</title>
<path fill="none" stroke="black" d="M262.92,-223.2C288,-237.79 324.56,-259.05 348.88,-273.19"/>
</g>
<!-- FIL_T1 -->
<g id="node5" class="node">
<title>FIL_T1</title>
<ellipse fill="none" stroke="black" cx="375.33" cy="-180" rx="39.58" ry="18"/>
<text xml:space="preserve" text-anchor="middle" x="375.33" y="-174.95" font-family="Times New Roman,serif" font-size="14.00">FIL_T1</text>
</g>
<!-- BORNIER_6&#45;&#45;FIL_T1 -->
<g id="edge4" class="edge">
<title>BORNIER_6&#45;&#45;FIL_T1</title>
<path fill="none" stroke="black" d="M285.74,-197.18C303.16,-193.8 322.3,-190.09 338.31,-186.98"/>
</g>
<!-- PLAQUES -->
<g id="node4" class="node">
<title>PLAQUES</title>
<ellipse fill="none" stroke="black" cx="561.63" cy="-342" rx="52.38" ry="18"/>
<text xml:space="preserve" text-anchor="middle" x="561.63" y="-336.95" font-family="Times New Roman,serif" font-size="14.00">PLAQUES</text>
</g>
<!-- VERT_T&#45;&#45;PLAQUES -->
<g id="edge3" class="edge">
<title>VERT_T&#45;&#45;PLAQUES</title>
<path fill="none" stroke="black" d="M409.5,-299.85C423.75,-304.78 440.63,-310.41 456.03,-315 476.25,-321.03 498.9,-326.97 517.94,-331.74"/>
</g>
<!-- R_SUP_TERRE -->
<g id="node6" class="node">
<title>R_SUP_TERRE</title>
<ellipse fill="none" stroke="black" cx="561.63" cy="-288" rx="72.34" ry="18"/>
<text xml:space="preserve" text-anchor="middle" x="561.63" y="-282.95" font-family="Times New Roman,serif" font-size="14.00">R_SUP_TERRE</text>
</g>
<!-- FIL_T1&#45;&#45;R_SUP_TERRE -->
<g id="edge5" class="edge">
<title>FIL_T1&#45;&#45;R_SUP_TERRE</title>
<path fill="none" stroke="black" d="M388.69,-197.26C402.87,-215.79 427.83,-244.74 456.03,-261 469.43,-268.73 485.06,-274.28 500.09,-278.26"/>
</g>
<!-- VENT_ARR_D_TERRE -->
<g id="node7" class="node">
<title>VENT_ARR_D_TERRE</title>
<ellipse fill="none" stroke="black" cx="561.63" cy="-234" rx="104.07" ry="18"/>
<text xml:space="preserve" text-anchor="middle" x="561.63" y="-228.95" font-family="Times New Roman,serif" font-size="14.00">VENT_ARR_D_TERRE</text>
</g>
<!-- FIL_T1&#45;&#45;VENT_ARR_D_TERRE -->
<g id="edge6" class="edge">
<title>FIL_T1&#45;&#45;VENT_ARR_D_TERRE</title>
<path fill="none" stroke="black" d="M407.2,-191.05C421.9,-196.16 439.79,-202.16 456.03,-207 470.14,-211.2 485.43,-215.37 499.85,-219.12"/>
</g>
<!-- VENT_ARR_G_TERRE -->
<g id="node8" class="node">
<title>VENT_ARR_G_TERRE</title>
<ellipse fill="none" stroke="black" cx="561.63" cy="-180" rx="104.07" ry="18"/>
<text xml:space="preserve" text-anchor="middle" x="561.63" y="-174.95" font-family="Times New Roman,serif" font-size="14.00">VENT_ARR_G_TERRE</text>
</g>
<!-- FIL_T1&#45;&#45;VENT_ARR_G_TERRE -->
<g id="edge7" class="edge">
<title>FIL_T1&#45;&#45;VENT_ARR_G_TERRE</title>
<path fill="none" stroke="black" d="M414.97,-180C427.53,-180 442.12,-180 457.12,-180"/>
</g>
<!-- LAMP_ARR_D_TERRE -->
<g id="node9" class="node">
<title>LAMP_ARR_D_TERRE</title>
<ellipse fill="none" stroke="black" cx="561.63" cy="-126" rx="105.6" ry="18"/>
<text xml:space="preserve" text-anchor="middle" x="561.63" y="-120.95" font-family="Times New Roman,serif" font-size="14.00">LAMP_ARR_D_TERRE</text>
</g>
<!-- FIL_T1&#45;&#45;LAMP_ARR_D_TERRE -->
<g id="edge8" class="edge">
<title>FIL_T1&#45;&#45;LAMP_ARR_D_TERRE</title>
<path fill="none" stroke="black" d="M407.2,-168.95C421.9,-163.84 439.79,-157.84 456.03,-153 470.05,-148.82 485.24,-144.68 499.58,-140.95"/>
</g>
<!-- LAMP_ARR_G_TERRE -->
<g id="node10" class="node">
<title>LAMP_ARR_G_TERRE</title>
<ellipse fill="none" stroke="black" cx="561.63" cy="-72" rx="105.6" ry="18"/>
<text xml:space="preserve" text-anchor="middle" x="561.63" y="-66.95" font-family="Times New Roman,serif" font-size="14.00">LAMP_ARR_G_TERRE</text>
</g>
<!-- FIL_T1&#45;&#45;LAMP_ARR_G_TERRE -->
<g id="edge9" class="edge">
<title>FIL_T1&#45;&#45;LAMP_ARR_G_TERRE</title>
<path fill="none" stroke="black" d="M388.69,-162.74C402.87,-144.21 427.83,-115.26 456.03,-99 465.86,-93.33 476.89,-88.83 487.99,-85.27"/>
</g>
<!-- BROCHE_TERRE -->
<g id="node11" class="node">
<title>BROCHE_TERRE</title>
<ellipse fill="none" stroke="black" cx="561.63" cy="-18" rx="82.06" ry="18"/>
<text xml:space="preserve" text-anchor="middle" x="561.63" y="-12.95" font-family="Times New Roman,serif" font-size="14.00">BROCHE_TERRE</text>
</g>
<!-- FIL_T1&#45;&#45;BROCHE_TERRE -->
<g id="edge10" class="edge">
<title>FIL_T1&#45;&#45;BROCHE_TERRE</title>
<path fill="none" stroke="black" d="M381.88,-162.07C391.84,-132.91 415.58,-75.44 456.03,-45 466.45,-37.16 478.92,-31.59 491.56,-27.63"/>
</g>
</g>
</svg>
